<svg class="icon" viewBox="0 0 1024 1024" xmlns="http://www.w3.org/2000/svg" width="200" height="200"><path d="M910.052 917.404H161.835a14.222 14.222 0 1 1 0-28.444h748.217a14.222 14.222 0 1 1 0 28.444zm-88.505-575.886a42.34 42.34 0 0 1-30.294-12.63L670.436 206.35a43.52 43.52 0 0 1 0-60.828l40.291-40.903c15.986-16.299 44.36-16.356 60.53-.029l120.931 122.596c16.484 16.882 16.47 44.146 0 60.828l-40.42 40.875a42.155 42.155 0 0 1-30.221 12.63zm-80.57-221.141a13.824 13.824 0 0 0-9.955 4.153l-40.32 40.931a15.132 15.132 0 0 0-.014 20.907l120.79 122.51c5.318 5.348 14.72 5.419 20.024.014l40.448-40.888a15.19 15.19 0 0 0-.057-20.921l-120.86-122.525a14.108 14.108 0 0 0-10.055-4.181zm-362.666 670.55a42.382 42.382 0 0 1-30.222-12.587L227.086 655.758a43.506 43.506 0 0 1-.07-60.8L589.78 227.172c15.887-16.1 44.715-16.072 60.544 0l120.847 122.567a43.35 43.35 0 0 1-.057 60.885L408.59 778.297a42.283 42.283 0 0 1-30.279 12.63zm241.75-547.969a14.137 14.137 0 0 0-10.027 4.182L247.282 614.912a15.09 15.09 0 0 0 .057 20.864l120.945 122.539c5.334 5.333 14.763 5.376 20.054-.015l362.581-367.7a15.047 15.047 0 0 0 0-20.893L630.073 247.14a14.137 14.137 0 0 0-10.013-4.182zM159.003 879.644c-10.026 0-18.787-3.94-24.675-11.093-6.258-7.609-8.505-17.92-6.329-29.07l29.17-147.698c3.783-19.115 16.355-25.927 26.908-25.927 5.59 0 14.094 1.877 22.898 10.78l120.903 122.639c9.102 9.33 12.516 20.409 9.43 30.421-3.073 9.956-12.004 17.11-24.534 19.655l-145.621 29.454c-2.845.57-5.575.84-8.15.84zM185.53 695.51a12.97 12.97 0 0 0-.441 1.778l-29.17 147.684c-.64 3.214-.07 4.977.37 5.504.356.44 1.408.725 2.702.725a12.544 12.544 0 0 0 2.532-.284l145.607-29.455a13.696 13.696 0 0 0 1.934-.512 16.555 16.555 0 0 0-1.493-1.749L186.724 696.633c-.427-.455-.84-.81-1.195-1.124z" fill="#fff"/></svg>